<?xml version="1.0" standalone="no"?>
<!DOCTYPE svg PUBLIC "-//W3C//DTD SVG 20010904//EN"
 "http://www.w3.org/TR/2001/REC-SVG-20010904/DTD/svg10.dtd">
<svg version="1.0" xmlns="http://www.w3.org/2000/svg"
 width="324.000000pt" height="218.000000pt" viewBox="0 0 324.000000 218.000000"
 preserveAspectRatio="xMidYMid meet">

<g transform="translate(0.000000,218.000000) scale(0.100000,-0.100000)"
fill="#000000" stroke="none">
<path d="M140 2004 c0 -4 8 -13 18 -20 16 -11 17 -39 17 -334 0 -295 -1 -323
-17 -334 -10 -7 -18 -16 -18 -20 0 -3 38 -6 85 -6 47 0 85 3 85 6 0 3 -7 12
-15 20 -12 13 -15 47 -15 180 l0 164 141 0 141 0 -4 -166 c-3 -144 -5 -167
-20 -178 -10 -7 -18 -16 -18 -20 0 -3 38 -6 85 -6 47 0 85 3 85 6 0 3 -7 12
-15 20 -22 23 -22 645 0 664 29 24 14 30 -70 30 -47 0 -85 -3 -85 -6 0 -4 8
-13 18 -20 14 -10 18 -33 20 -153 l4 -141 -141 0 -141 0 0 139 c0 111 3 141
15 151 29 24 14 30 -70 30 -47 0 -85 -3 -85 -6z"/>
<path d="M790 2000 c0 -5 4 -10 10 -10 25 0 31 -83 28 -368 -3 -266 -5 -295
-20 -306 -10 -7 -18 -16 -18 -20 0 -3 94 -6 209 -6 241 0 216 -13 226 120 4
47 9 93 11 103 3 9 1 17 -4 17 -5 0 -15 -20 -22 -45 -32 -114 -98 -165 -213
-165 l-67 0 0 170 0 170 40 0 c55 0 96 -23 119 -68 l20 -37 0 120 0 120 -20
-37 c-23 -45 -64 -68 -119 -68 l-40 0 0 145 0 145 49 0 c27 0 63 -3 80 -6 39
-8 87 -56 102 -103 26 -83 38 -39 23 87 l-7 52 -193 0 c-123 0 -194 -4 -194
-10z"/>
<path d="M1310 2004 c0 -4 8 -13 18 -20 16 -11 17 -39 17 -334 0 -295 -1 -323
-17 -334 -10 -7 -18 -16 -18 -20 0 -10 222 -7 286 5 118 21 210 96 249 200 31
84 28 235 -6 309 -69 150 -176 199 -436 200 -51 0 -93 -3 -93 -6z m283 -40
c102 -35 161 -147 161 -309 1 -219 -85 -335 -246 -335 l-58 0 0 330 0 330 48
0 c27 0 69 -7 95 -16z"/>
<path d="M1960 2004 c0 -4 8 -13 18 -20 16 -11 17 -39 17 -334 0 -295 -1 -323
-17 -334 -10 -7 -18 -16 -18 -20 0 -10 222 -7 285 5 115 21 195 82 241 181 26
57 29 73 29 168 -1 91 -4 112 -26 160 -70 150 -176 199 -436 200 -51 0 -93 -3
-93 -6z m274 -36 c63 -19 131 -92 152 -164 21 -71 24 -217 5 -291 -30 -121
-117 -193 -233 -193 l-58 0 0 330 0 330 46 0 c26 0 65 -6 88 -12z"/>
<path d="M2782 1953 c-11 -32 -49 -143 -85 -248 -92 -270 -124 -348 -152 -375
-14 -13 -25 -27 -25 -32 0 -4 38 -8 85 -8 47 0 85 2 85 5 0 3 -12 16 -27 29
-33 29 -35 67 -8 155 l18 61 103 0 102 0 31 -93 c35 -104 37 -125 16 -133 -38
-15 -7 -24 80 -24 87 0 118 9 81 23 -23 9 -35 40 -156 380 -62 174 -116 317
-120 317 -5 0 -17 -26 -28 -57z m38 -249 c22 -65 40 -124 40 -131 0 -10 -22
-13 -85 -13 -61 0 -85 3 -85 12 0 19 81 260 86 255 3 -2 22 -57 44 -123z"/>
<path d="M1573 1079 c-62 -18 -81 -77 -39 -126 21 -24 32 -28 74 -28 61 0 102
31 102 77 0 31 -39 78 -64 78 -8 0 -20 2 -28 4 -7 2 -27 0 -45 -5z m61 -22
c22 -16 26 -78 7 -101 -26 -31 -67 -14 -71 29 -4 36 0 53 16 69 19 19 25 20
48 3z"/>
<path d="M920 870 c0 -5 4 -10 10 -10 24 0 31 -90 28 -371 -3 -263 -5 -292
-20 -303 -10 -7 -18 -16 -18 -20 0 -3 41 -6 90 -6 92 0 106 5 70 28 -18 11
-20 23 -20 152 l0 140 58 0 c155 0 252 77 252 200 0 109 -67 172 -201 190 -99
13 -249 13 -249 0z m266 -40 c53 -26 76 -71 76 -151 0 -107 -46 -161 -149
-175 l-53 -7 0 177 0 176 42 0 c23 0 61 -9 84 -20z"/>
<path d="M1582 823 c-11 -32 -50 -145 -86 -252 -95 -277 -123 -345 -151 -371
-14 -13 -25 -27 -25 -32 0 -4 38 -8 85 -8 47 0 85 2 85 5 0 3 -12 16 -27 29
-33 29 -35 67 -8 155 l18 61 103 0 102 0 31 -93 c35 -104 37 -125 16 -133 -38
-15 -7 -24 80 -24 87 0 118 9 81 23 -23 9 -35 40 -156 380 -62 174 -116 317
-120 317 -5 0 -17 -26 -28 -57z m38 -249 c22 -65 40 -124 40 -131 0 -10 -22
-13 -85 -13 -61 0 -85 3 -85 12 0 19 81 260 86 255 3 -2 22 -57 44 -123z"/>
<path d="M1940 870 c0 -5 4 -10 10 -10 24 0 31 -90 28 -371 -3 -263 -5 -292
-20 -303 -10 -7 -18 -16 -18 -20 0 -3 87 -6 194 -6 223 0 201 -12 211 115 3
44 8 92 11 108 10 51 -11 27 -30 -35 -34 -107 -97 -158 -196 -158 l-50 0 0
325 c0 314 1 325 20 337 36 23 22 28 -70 28 -53 0 -90 -4 -90 -10z"/>
<path d="M285 739 c-87 -25 -120 -130 -70 -224 15 -27 23 -51 18 -52 -4 -2
-23 -12 -41 -23 -48 -29 -72 -75 -72 -139 0 -48 3 -57 38 -91 71 -71 191 -76
272 -11 l36 29 28 -23 c15 -12 45 -28 66 -34 36 -11 90 -15 90 -7 0 2 -32 35
-70 72 -57 54 -69 72 -63 88 3 12 11 46 18 76 10 51 13 55 40 57 17 0 36 2 43
2 8 1 12 11 10 29 -3 23 -8 27 -40 30 -48 4 -66 -22 -80 -117 -6 -39 -14 -71
-17 -71 -7 0 -79 80 -123 136 -18 22 -17 23 28 49 83 48 107 126 58 184 -37
44 -102 60 -169 40z m104 -45 c36 -46 23 -122 -27 -168 -25 -22 -36 -16 -73
42 -51 81 -30 152 45 152 25 0 40 -7 55 -26z m39 -435 c11 -17 9 -21 -20 -39
-21 -13 -51 -20 -81 -20 -40 0 -53 5 -83 33 -55 50 -61 144 -13 196 l21 23 82
-88 c44 -48 87 -95 94 -105z"/>
</g>
</svg>
