<?xml version="1.0" standalone="no"?>
<!DOCTYPE svg PUBLIC "-//W3C//DTD SVG 20010904//EN"
 "http://www.w3.org/TR/2001/REC-SVG-20010904/DTD/svg10.dtd">
<svg version="1.0" xmlns="http://www.w3.org/2000/svg"
 width="1088.000000pt" height="360.000000pt" viewBox="0 0 1088.000000 360.000000"
 preserveAspectRatio="xMidYMid meet">

<g transform="translate(0.000000,360.000000) scale(0.100000,-0.100000)"
fill="#000000" stroke="none">
<path d="M0 3585 c0 -13 611 -15 5440 -15 4829 0 5440 2 5440 15 0 13 -611 15
-5440 15 -4829 0 -5440 -2 -5440 -15z"/>
<path d="M3675 2243 c-109 -320 -140 -397 -178 -439 l-29 -34 96 0 c57 0 96 4
96 10 0 6 -4 10 -10 10 -5 0 -19 9 -30 20 -25 25 -25 85 -1 155 l18 50 98 0
99 0 34 -90 c31 -85 35 -135 12 -135 -6 0 -10 -4 -10 -10 0 -6 38 -10 95 -10
94 0 109 6 79 31 -25 21 -39 54 -150 370 -59 167 -112 310 -119 317 -10 11
-30 -39 -100 -245z m104 -63 c23 -63 41 -118 41 -122 0 -5 -39 -8 -86 -8 -65
0 -85 3 -82 13 3 6 22 63 43 125 20 62 39 112 40 110 2 -2 22 -55 44 -118z"/>
<path d="M1100 2481 c0 -5 7 -14 15 -21 13 -11 15 -60 15 -330 0 -270 -2 -319
-15 -330 -29 -24 -14 -30 70 -30 84 0 99 6 70 30 -12 10 -15 43 -15 176 l0
164 135 0 135 0 0 -164 c0 -133 -3 -167 -15 -180 -8 -8 -15 -17 -15 -20 0 -3
41 -6 90 -6 92 0 106 5 70 28 -19 12 -20 23 -20 327 0 302 1 316 20 335 11 11
20 22 20 25 0 3 -40 5 -90 5 -89 0 -104 -6 -75 -30 12 -10 15 -40 15 -151 l0
-139 -135 0 -135 0 0 139 c0 111 3 141 15 151 29 24 14 30 -70 30 -47 0 -85
-4 -85 -9z"/>
<path d="M1750 2481 c0 -5 7 -14 15 -21 13 -11 15 -60 15 -330 0 -270 -2 -319
-15 -330 -8 -7 -15 -16 -15 -21 0 -5 96 -9 214 -9 l214 0 6 88 c4 48 10 102
13 120 9 53 -13 37 -36 -27 -40 -110 -96 -150 -208 -151 l-63 0 0 170 0 170
40 0 c57 0 93 -22 115 -69 10 -22 22 -38 26 -35 11 7 12 234 1 234 -5 0 -16
-16 -25 -36 -19 -40 -65 -64 -122 -64 l-35 0 0 146 0 147 70 -5 c41 -3 80 -12
95 -22 31 -20 63 -70 72 -108 3 -16 9 -28 14 -28 10 0 12 150 3 174 -5 14 -32
16 -200 16 -107 0 -194 -4 -194 -9z"/>
<path d="M2270 2481 c0 -5 7 -14 15 -21 13 -11 15 -60 15 -330 0 -270 -2 -319
-15 -330 -34 -28 -14 -32 138 -28 110 4 165 10 199 22 65 24 141 95 174 161
45 94 44 265 -3 358 -41 81 -129 144 -231 166 -62 13 -292 15 -292 2z m309
-50 c91 -47 132 -140 132 -301 0 -215 -88 -330 -253 -330 l-48 0 0 331 0 332
66 -7 c37 -4 83 -15 103 -25z"/>
<path d="M2920 2481 c0 -5 7 -14 15 -21 13 -11 15 -60 15 -330 0 -270 -2 -319
-15 -330 -34 -28 -14 -32 138 -28 110 4 165 10 199 22 65 24 141 95 174 161
45 94 44 265 -3 358 -41 81 -129 144 -231 166 -62 13 -292 15 -292 2z m309
-50 c91 -47 132 -140 132 -301 0 -215 -88 -330 -253 -330 l-48 0 0 331 0 332
66 -7 c37 -4 83 -15 103 -25z"/>
<path d="M8010 2474 c-12 -4 -15 -26 -15 -119 l0 -115 25 0 25 0 -3 120 c-2
66 -6 119 -10 119 -4 -1 -14 -3 -22 -5z"/>
<path d="M8116 2457 c-46 -46 -42 -168 7 -202 30 -21 79 -19 105 5 48 45 48
171 -1 205 -33 23 -84 19 -111 -8z m90 -5 c19 -29 25 -114 11 -151 -18 -50
-41 -61 -69 -33 -19 18 -23 33 -23 86 0 35 6 74 14 89 17 31 51 36 67 9z"/>
<path d="M8495 2383 c-21 -54 -45 -108 -53 -120 -14 -22 -13 -23 17 -23 28 0
30 2 22 18 -6 10 -7 28 -4 40 4 18 13 22 48 22 39 0 44 -3 54 -31 6 -17 8 -35
5 -40 -3 -5 11 -9 30 -9 l35 0 -18 33 c-10 17 -34 71 -52 119 -19 49 -37 88
-40 88 -3 0 -23 -44 -44 -97z m50 -9 c19 -46 20 -44 -15 -44 -33 0 -37 11 -20
54 13 34 17 33 35 -10z"/>
<path d="M9116 2458 c-8 -12 -13 -25 -10 -30 10 -15 25 -8 34 18 15 39 54 30
58 -13 3 -28 -5 -41 -47 -86 -27 -29 -53 -65 -56 -80 l-7 -28 83 3 84 3 3 29
c3 27 2 28 -13 13 -12 -12 -34 -17 -76 -17 -55 0 -59 1 -50 19 6 10 23 26 38
36 58 36 83 68 83 102 0 38 -21 53 -74 53 -24 0 -39 -6 -50 -22z"/>
<path d="M9306 2457 c-46 -46 -42 -168 7 -202 30 -21 79 -19 105 5 48 45 48
171 -1 205 -33 23 -84 19 -111 -8z m90 -5 c19 -29 25 -114 11 -151 -18 -50
-41 -61 -69 -33 -19 18 -23 33 -23 86 0 35 6 74 14 89 17 31 51 36 67 9z"/>
<path d="M9506 2458 c-8 -12 -13 -25 -10 -30 10 -15 25 -8 34 18 15 39 54 30
58 -13 3 -28 -5 -41 -47 -86 -27 -29 -53 -65 -56 -80 l-7 -28 83 3 84 3 3 29
c3 27 2 28 -13 13 -12 -12 -34 -17 -76 -17 -55 0 -59 1 -50 19 6 10 23 26 38
36 58 36 83 68 83 102 0 38 -21 53 -74 53 -24 0 -39 -6 -50 -22z"/>
<path d="M9727 2392 l-69 -87 57 -3 c57 -3 57 -3 53 -33 -4 -26 -2 -29 23 -29
26 0 28 2 23 30 -6 26 -4 30 15 30 27 0 28 16 1 23 -18 5 -20 14 -20 81 0 42
-3 76 -7 76 -5 -1 -39 -40 -76 -88z m43 -27 c0 -45 0 -45 -35 -45 -19 0 -35 3
-35 6 0 7 60 84 66 84 2 0 4 -20 4 -45z"/>
<path d="M8956 2441 c-3 -4 -22 -11 -42 -14 -20 -3 -42 -11 -50 -18 -17 -14
-18 -61 -2 -77 8 -8 8 -15 -1 -26 -7 -8 -10 -24 -6 -35 3 -10 1 -22 -5 -26
-17 -10 -11 -44 9 -55 49 -26 141 -1 141 38 0 32 -19 46 -66 51 -53 7 -74 31
-27 31 42 0 73 26 73 60 0 16 -5 32 -11 36 -8 5 -6 10 5 16 9 5 14 13 11 19
-8 11 -22 12 -29 0z m-13 -53 c8 -27 -9 -68 -27 -68 -16 0 -36 29 -36 54 0 21
28 46 44 40 8 -3 16 -15 19 -26z m12 -152 c16 -12 17 -16 6 -30 -26 -31 -91
-17 -91 20 0 20 5 24 33 24 18 0 42 -6 52 -14z"/>
<path d="M8675 2422 c-20 -3 -20 -7 -14 -78 4 -41 13 -82 19 -90 15 -17 61
-19 78 -2 9 9 12 9 12 0 0 -7 10 -12 23 -12 21 0 22 2 19 90 -3 85 -5 90 -25
90 -21 0 -22 -4 -19 -75 3 -64 1 -76 -14 -82 -34 -13 -49 10 -54 88 -5 67 -7
74 -25 71z"/>
<path d="M8306 2283 c-3 -4 -6 -15 -6 -25 0 -24 33 -21 38 3 3 17 -21 33 -32
22z"/>
<path d="M2530 1563 c-71 -28 -82 -116 -19 -148 52 -27 137 -10 153 30 13 34
6 72 -18 94 -24 23 -87 36 -116 24z m68 -35 c15 -15 16 -63 2 -89 -24 -43 -70
-12 -70 48 0 32 16 53 40 53 9 0 21 -5 28 -12z"/>
<path d="M2475 1113 c-109 -320 -140 -397 -178 -439 l-29 -34 96 0 c57 0 96 4
96 10 0 6 -4 10 -10 10 -5 0 -19 9 -30 20 -25 25 -25 85 -1 155 l18 50 98 0
99 0 34 -90 c31 -85 35 -135 12 -135 -6 0 -10 -4 -10 -10 0 -6 38 -10 95 -10
94 0 109 6 79 31 -25 21 -39 54 -150 370 -59 167 -112 310 -119 317 -10 11
-30 -39 -100 -245z m104 -63 c23 -63 41 -118 41 -122 0 -5 -39 -8 -86 -8 -65
0 -85 3 -82 13 3 6 22 63 43 125 20 62 39 112 40 110 2 -2 22 -55 44 -118z"/>
<path d="M1880 1351 c0 -5 7 -14 15 -21 13 -11 15 -60 15 -330 0 -270 -2 -319
-15 -330 -29 -24 -14 -30 80 -30 57 0 95 4 95 10 0 6 -7 10 -15 10 -27 0 -35
38 -35 168 l0 129 83 5 c164 9 239 84 225 228 -9 87 -66 139 -179 160 -64 12
-269 13 -269 1z m276 -46 c43 -28 64 -74 64 -140 -1 -117 -52 -175 -154 -175
l-46 0 0 171 0 172 56 -6 c30 -3 67 -13 80 -22z"/>
<path d="M2900 1351 c0 -5 7 -14 15 -21 13 -11 15 -60 15 -330 0 -270 -2 -319
-15 -330 -8 -7 -15 -16 -15 -21 0 -5 89 -9 199 -9 l198 0 7 78 c4 42 9 98 13
125 7 61 -10 62 -27 2 -32 -113 -103 -174 -202 -175 l-48 0 0 319 c0 277 2
322 16 335 8 9 20 16 25 16 5 0 9 5 9 10 0 6 -38 10 -95 10 -52 0 -95 -4 -95
-9z"/>
<path d="M1219 1209 c-20 -12 -43 -34 -52 -49 -25 -42 -22 -117 8 -168 l24
-42 -27 -14 c-94 -49 -124 -147 -71 -233 53 -86 215 -97 297 -20 19 18 26 19
40 9 41 -30 100 -52 141 -52 l43 0 -75 70 -75 70 13 53 c7 28 16 65 19 80 6
25 10 28 44 25 34 -3 37 -1 40 24 5 40 -36 58 -73 34 -31 -20 -40 -42 -50
-116 -4 -30 -9 -58 -12 -63 -4 -7 -50 40 -117 120 l-27 32 39 20 c58 29 92 75
92 120 0 97 -128 154 -221 100z m130 -35 c27 -34 27 -87 0 -130 -36 -59 -53
-61 -90 -8 -41 60 -48 111 -19 142 30 32 82 30 109 -4z m-35 -356 l87 -98 -33
-20 c-37 -23 -101 -26 -138 -7 -13 7 -35 28 -48 47 -31 46 -27 127 8 165 13
14 27 22 30 18 4 -5 46 -52 94 -105z"/>
</g>
</svg>
